{
  "accessors": [
    {
      "bufferView": 2,
      "componentType": 5126,
      "count": 2188,
      "max": [
        134.61500549316406,
        188.82261657714844,
        134.43618774414063
      ],
      "min": [
        -145.78224182128906,
        10.98411750793457,
        -124.60206604003906
      ],
      "type": "VEC3"
    },
    {
      "bufferView": 2,
      "byteOffset": 26256,
      "componentType": 5126,
      "count": 2188,
      "max": [
        0.9416029453277588,
        1.0,
        1.0
      ],
      "min": [
        -0.9407669305801392,
        -1.0,
        -1.0
      ],
      "type": "VEC3"
    },
    {
      "bufferView": 1,
      "componentType": 5126,
      "count": 2188,
      "max": [
        0.5474357008934021,
        0.6840296387672424
      ],
      "min": [
        0.08826709538698196,
        0.3949936032295227
      ],
      "type": "VEC2"
    },
    {
      "bufferView": 0,
      "componentType": 5125,
      "count": 7020,
      "type": "SCALAR"
    },
    {
      "bufferView": 2,
      "byteOffset": 52512,
      "componentType": 5126,
      "count": 2188,
      "max": [
        133.72291564941406,
        187.7924346923828,
        133.63327026367188
      ],
      "min": [
        -144.89016723632813,
        12.029634475708008,
        -123.79151916503906
      ],
      "type": "VEC3"
    },
    {
      "bufferView": 2,
      "byteOffset": 78768,
      "componentType": 5126,
      "count": 2188,
      "max": [
        0.9412773251533508,
        1.0,
        1.0
      ],
      "min": [
        -0.9405407905578613,
        -1.0,
        -1.0
      ],
      "type": "VEC3"
    },
    {
      "bufferView": 1,
      "byteOffset": 17504,
      "componentType": 5126,
      "count": 2188,
      "max": [
        0.5474357008934021,
        0.6840296387672424
      ],
      "min": [
        0.08826709538698196,
        0.3949936032295227
      ],
      "type": "VEC2"
    },
    {
      "bufferView": 0,
      "byteOffset": 28080,
      "componentType": 5125,
      "count": 7020,
      "type": "SCALAR"
    },
    {
      "bufferView": 2,
      "byteOffset": 105024,
      "componentType": 5126,
      "count": 3765,
      "max": [
        158.6832733154297,
        160.22096252441406,
        150.13031005859375
      ],
      "min": [
        -174.58473205566406,
        -6.227180480957031,
        -145.252197265625
      ],
      "type": "VEC3"
    },
    {
      "bufferView": 2,
      "byteOffset": 150204,
      "componentType": 5126,
      "count": 3765,
      "max": [
        0.9982410669326782,
        0.999985933303833,
        0.9985767006874084
      ],
      "min": [
        -0.9999831318855286,
        -1.0,
        -0.9996236562728882
      ],
      "type": "VEC3"
    },
    {
      "bufferView": 1,
      "byteOffset": 35008,
      "componentType": 5126,
      "count": 3765,
      "max": [
        0.9858569502830505,
        0.965901792049408
      ],
      "min": [
        0.023971661925315857,
        0.022381873801350594
      ],
      "type": "VEC2"
    },
    {
      "bufferView": 0,
      "byteOffset": 56160,
      "componentType": 5125,
      "count": 15741,
      "type": "SCALAR"
    },
    {
      "bufferView": 2,
      "byteOffset": 195384,
      "componentType": 5126,
      "count": 1910,
      "max": [
        161.38784790039063,
        162.0409698486328,
        152.65341186523438
      ],
      "min": [
        -177.60777282714844,
        -6.30803108215332,
        -147.80560302734375
      ],
      "type": "VEC3"
    },
    {
      "bufferView": 2,
      "byteOffset": 218304,
      "componentType": 5126,
      "count": 1910,
      "max": [
        0.9981141686439514,
        0.9195190072059631,
        0.9808933138847351
      ],
      "min": [
        -0.9985708594322205,
        -1.0,
        -0.9935529828071594
      ],
      "type": "VEC3"
    },
    {
      "bufferView": 1,
      "byteOffset": 65128,
      "componentType": 5126,
      "count": 1910,
      "max": [
        0.9808793663978577,
        0.965901792049408
      ],
      "min": [
        0.023971661925315857,
        0.021552905440330505
      ],
      "type": "VEC2"
    },
    {
      "bufferView": 0,
      "byteOffset": 119124,
      "componentType": 5125,
      "count": 9936,
      "type": "SCALAR"
    }
  ],
  "asset": {
    "extras": {
      "author": "Laura Costa (https://sketchfab.com/LauraMG)",
      "license": "CC-BY-4.0 (http://creativecommons.org/licenses/by/4.0/)",
      "source": "https://sketchfab.com/3d-models/bongo-cat-in-winter-7e13685dc3194ae49d1b5617370252bc",
      "title": "Bongo Cat in Winter"
    },
    "generator": "Sketchfab-12.68.0",
    "version": "2.0"
  },
  "bufferViews": [
    {
      "buffer": 0,
      "byteLength": 158868,
      "name": "floatBufferViews",
      "target": 34963
    },
    {
      "buffer": 0,
      "byteLength": 80408,
      "byteOffset": 158868,
      "byteStride": 8,
      "name": "floatBufferViews",
      "target": 34962
    },
    {
      "buffer": 0,
      "byteLength": 241224,
      "byteOffset": 239276,
      "byteStride": 12,
      "name": "floatBufferViews",
      "target": 34962
    }
  ],
  "buffers": [
    {
      "byteLength": 480500,
      "uri": "scene.bin"
    }
  ],
  "extensionsUsed": [
    "KHR_materials_unlit"
  ],
  "images": [
    {
      "uri": "textures/Texture_baseColor.png"
    }
  ],
  "materials": [
    {
      "extensions": {
        "KHR_materials_unlit": {}
      },
      "name": "Outline",
      "pbrMetallicRoughness": {
        "baseColorFactor": [
          0.04184124973140825,
          0.04184124973140825,
          0.04184124973140825,
          1.0
        ],
        "metallicFactor": 0.0
      }
    },
    {
      "doubleSided": true,
      "extensions": {
        "KHR_materials_unlit": {}
      },
      "name": "Texture",
      "pbrMetallicRoughness": {
        "baseColorTexture": {
          "index": 0
        },
        "metallicFactor": 0.0
      }
    }
  ],
  "meshes": [
    {
      "name": "Cat_Outline_0",
      "primitives": [
        {
          "attributes": {
            "NORMAL": 1,
            "POSITION": 0,
            "TEXCOORD_0": 2
          },
          "indices": 3,
          "material": 0,
          "mode": 4
        }
      ]
    },
    {
      "name": "Cat_Texture_0",
      "primitives": [
        {
          "attributes": {
            "NORMAL": 5,
            "POSITION": 4,
            "TEXCOORD_0": 6
          },
          "indices": 7,
          "material": 1,
          "mode": 4
        }
      ]
    },
    {
      "name": "1",
      "primitives": [
        {
          "attributes": {
            "NORMAL": 9,
            "POSITION": 8,
            "TEXCOORD_0": 10
          },
          "indices": 11,
          "material": 1,
          "mode": 4
        }
      ]
    },
    {
      "name": "0",
      "primitives": [
        {
          "attributes": {
            "NORMAL": 13,
            "POSITION": 12,
            "TEXCOORD_0": 14
          },
          "indices": 15,
          "material": 0,
          "mode": 4
        }
      ]
    }
  ],
  "nodes": [
    {
      "children": [
        1
      ],
      "matrix": [
        0.8244239091873169,
        0.0,
        0.0,
        0.0,
        0.0,
        1.8305888120624767e-16,
        -0.8244239091873169,
        0.0,
        0.0,
        0.8244239091873169,
        1.8305888120624767e-16,
        0.0,
        0.0,
        0.0,
        0.0,
        1.0
      ],
      "name": "Sketchfab_model"
    },
    {
      "children": [
        2
      ],
      "matrix": [
        1.0,
        0.0,
        0.0,
        0.0,
        0.0,
        0.0,
        1.0,
        0.0,
        0.0,
        -1.0,
        0.0,
        0.0,
        0.0,
        0.0,
        0.0,
        1.0
      ],
      "name": "446e34b1fcf4474f8e631c6df42d4ce2.fbx"
    },
    {
      "children": [
        3,
        6,
        8,
        11
      ],
      "name": "RootNode"
    },
    {
      "children": [
        4
      ],
      "matrix": [
        -29.08647719990347,
        -5.518906457566863,
        -95.51711910171437,
        0.0,
        56.63930913109449,
        79.46723428563203,
        -21.83912397841966,
        0.0,
        77.11008775993375,
        -60.45246356562044,
        -19.98834696773717,
        0.0,
        407.6245422363281,
        590.38623046875,
        -100.54539489746094,
        1.0
      ],
      "name": "Light"
    },
    {
      "children": [
        5
      ],
      "matrix": [
        1.0,
        0.0,
        0.0,
        0.0,
        0.0,
        2.220446049250313e-16,
        1.0,
        0.0,
        0.0,
        -1.0,
        2.220446049250313e-16,
        0.0,
        0.0,
        0.0,
        0.0,
        1.0
      ],
      "name": "Object_4"
    },
    {
      "name": "Object_5"
    },
    {
      "children": [
        7
      ],
      "matrix": [
        -65.15583280329096,
        -44.52713576570858,
        -61.41703047373549,
        0.0,
        -32.40134137821245,
        89.53957451233616,
        -30.542088974418615,
        0.0,
        68.59205472129975,
        -1.0718647115348782e-05,
        -72.7676336239627,
        0.0,
        735.88916015625,
        495.8309326171875,
        692.5791015625,
        1.0
      ],
      "name": "Camera"
    },
    {
      "name": "Object_7"
    },
    {
      "children": [
        9,
        10
      ],
      "matrix": [
        1.0,
        0.0,
        0.0,
        0.0,
        0.0,
        0.9999999999999867,
        1.6292067073209113e-07,
        0.0,
        0.0,
        -1.6292067073209113e-07,
        0.9999999999999867,
        0.0,
        0.0,
        0.0,
        0.0,
        1.0
      ],
      "name": "Cat"
    },
    {
      "mesh": 0,
      "name": "Cat_Outline_0"
    },
    {
      "mesh": 1,
      "name": "Cat_Texture_0"
    },
    {
      "children": [
        12,
        13
      ],
      "matrix": [
        1.0,
        0.0,
        0.0,
        0.0,
        0.0,
        0.9999999999999867,
        1.6292067073209113e-07,
        0.0,
        0.0,
        -1.6292067073209113e-07,
        0.9999999999999867,
        0.0,
        0.0,
        0.0,
        0.0,
        1.0
      ],
      "name": "Cat.001"
    },
    {
      "mesh": 2,
      "name": "1"
    },
    {
      "mesh": 3,
      "name": "0"
    }
  ],
  "samplers": [
    {
      "magFilter": 9729,
      "minFilter": 9987,
      "wrapS": 10497,
      "wrapT": 10497
    }
  ],
  "scene": 0,
  "scenes": [
    {
      "name": "Sketchfab_Scene",
      "nodes": [
        0
      ]
    }
  ],
  "textures": [
    {
      "sampler": 0,
      "source": 0
    }
  ]
}
